<?xml version="1.0" encoding="utf-8"?>
<!-- Generator: Adobe Illustrator 21.0.2, SVG Export Plug-In . SVG Version: 6.00 Build 0)  -->
<svg version="1.1" id="Layer_1_copy_2" xmlns="http://www.w3.org/2000/svg" xmlns:xlink="http://www.w3.org/1999/xlink" x="0px"
	 y="0px" viewBox="0 0 446 251" style="enable-background:new 0 0 446 251;" xml:space="preserve">
<style type="text/css">
	.st0{fill-rule:evenodd;clip-rule:evenodd;fill:#D71920;}
</style>
<g>
	<g>
		<path class="st0" d="M382.1,142.8c-2.3-0.4-3.6,2.9-9,8.1c-3,2.9-6.2,5.9-11.4,8.2c-7.7,3.3-9-1.1-8.2-7.4
			c0.8-6.7,3.7-15.2,4.7-19.8c0.3-1.6,0.4-3.7-1-5.8c-1.6-2.4-5.3-3.7-7.2-1.4c-2.8,3.4-4.1,5.8-13.2,17.2
			c-8,10.1-18.4,18.4-24.2,13.9c-3.2-2.5-3.6-7.4,0-14.3c3.8-7.5,12.7-16.2,20.6-21.9c10.3-7.5,16-8.7,17.1-9
			c1.4-0.4,2.5-0.4,2.9,0.2c1.2,1.4-1.9,3.1-0.9,6.4c0.7,2.3,3.1,3.3,4.5,3.4c2,0.2,6.8-1.1,7.8-7.3c1-6.3-4.8-17.3-31.3-7.1
			c-20.3,7.8-40.9,27.6-44.5,43.7c-4,2.6-8.9,4.7-14,4.3c-9.4-0.7-8.6-12.2-4-21c4.7-8.9,12.9-15,15.5-17.4c3.6-3.3,7-3.7,4.9-9.5
			c-1.5-4-3.8-4.3-7.6-3.2c-9.2,2.7-20,4.7-27,5.4c-0.2-4.4-2.9-8.7-8.9-8.7c-6.1,0-12.5,5.7-13.6,12.8c-1.2,7.8,2.5,11.7,6,13.2
			c-7,13-22,29-36.5,30.1c-4.1,0.3-7.8-1.1-9.7-3.3c9.7-5.5,19.2-13,24.6-24.1c7-14.6,0-23.2-10.2-23.2c-11.4,0-32.4,11.6-38.7,31.6
			c-1.7,5.4-2.1,12.2-0.5,18.4c-6,2.1-12.5,3.5-18.6,3.5c-9.1,0-9.2-7-7-11.7c1.5-3.3,14-29.8,22.5-47.9c27.5-4.9,64.2-11.3,71-12.6
			c4.1-0.8,9-1,8.7-4.5c-0.2-2.6-3.5-2.6-6.3-2.4l-65.8,3.3c7-17-9.4-23.6-12.2-19.8c-1.1,1.5-5.5,10.2-10.7,20.9l-12.1,0.6
			c-5.4,0.4-14.2,1.3-15.4,10.1c-1,6.9,6.1,10.9,14.1,9.4c1-0.2,2.4-0.4,4.1-0.7c-5.7,11.9-10.8,22.7-12.4,26.2
			c-3.9,8.6-8,16.4-8.9,23.6c-5.8,3.4-12.1,6-17.6,5.8c-9.1-0.3-8.8-7.5-6.9-11.7c1.4-3,3.7-8.3,6.8-14.9c4.2-9,0.2-15.8-6.3-18.1
			c-4.4-1.6-8.5-1.7-10.2-0.1c-2.3,2-0.5,7.1-2.4,11.2c-4,8.3-7.1,15.4-9.2,19.9c-4.5,9.5-3.7,17.7,1,23c3.4,3.7,9,6.2,16.6,6.2
			c9,0,20.2-5,29.5-11.1c0.3,0.7,0.7,1.5,1.1,2.2c2.9,5,9,8.5,17.5,8.5c9.3,0,22.6-4.6,33.1-10.5c3.8,5.2,10.1,9,19.6,9.1
			c27.5,0.4,49.2-25.7,57.8-46.4c7.6-1.1,17.1-4.9,17.1-4.9s-24.4,22.5-19,40.2c2.2,7,9.5,12.9,19.9,11.8
			c8.4-0.8,15.7-5.6,21.3-10.8c3.7,9.3,13.3,10.7,19.8,9.8c16.1-2.3,26.8-18.2,26.8-18.2s-1.7,6.1,0.6,11.4
			c1.6,3.9,5.5,7.4,12.7,7.4c16.3,0,29.1-16.6,31.7-20.7C385.4,145.3,384.4,143.1,382.1,142.8 M188.8,144.7
			c-0.4-0.9-2.3-8.2,3.4-17.5c4.7-7.8,13-12.4,16.2-9.7c2.2,1.9-0.2,8.4-7.3,16.6C196.9,139.1,192.9,142.4,188.8,144.7"/>
		<path class="st0" d="M100.8,107.3c6.8,0,13.5-5.3,14.9-11.8c1.5-6.5-2.8-11.8-9.6-11.8c-6.8,0-13.5,5.3-14.9,11.8
			C89.8,102,94.1,107.3,100.8,107.3"/>
	</g>
</g>
</svg>
